<?xml version="1.0" encoding="UTF-8"?>
<!DOCTYPE svg PUBLIC "-//W3C//DTD SVG 1.1//EN" "http://www.w3.org/Graphics/SVG/1.1/DTD/svg11.dtd">
<!-- Creator: CorelDRAW 2021.5 -->
<svg xmlns="http://www.w3.org/2000/svg" xml:space="preserve" width="80px" height="57px" version="1.1" style="shape-rendering:geometricPrecision; text-rendering:geometricPrecision; image-rendering:optimizeQuality; fill-rule:evenodd; clip-rule:evenodd"
viewBox="0 0 80 57.227"
 xmlns:xlink="http://www.w3.org/1999/xlink"
 xmlns:xodm="http://www.corel.com/coreldraw/odm/2003">
 <defs>
  <style type="text/css">
   <![CDATA[
    .fil0 {fill:currentColor}
    .fil1 {fill:currentColor;fill-rule:nonzero}
   ]]>
  </style>
 </defs>
 <g id="Capa_x0020_1">
  <metadata id="CorelCorpID_0Corel-Layer"/>
  <g id="_2585675679408">
   <path class="fil0" d="M38.841 10.971l-11.772 11.812c1.457,2.743 3.712,4.995 6.455,6.444l18.194 -18.256 -12.877 0zm-12.588 10.006l19.915 -19.982c-1.696,-0.643 -3.535,-0.995 -5.456,-0.995 -8.533,0 -15.451,6.941 -15.451,15.502 0,1.928 0.351,3.773 0.992,5.475zm17.126 0.986l-8.048 8.075c1.676,0.624 3.488,0.966 5.381,0.966 6.235,0 11.607,-3.705 14.048,-9.041l-11.381 0z"/>
   <g>
    <polygon class="fil1" points="20.166,52.407 17.347,52.407 20.06,39.278 15.209,39.278 15.699,36.904 28.219,36.904 27.73,39.278 22.88,39.278 "/>
    <path class="fil1" d="M48.496 39.012c-0.658,0 -1.282,0.094 -1.857,0.288 -0.58,0.194 -1.097,0.463 -1.554,0.803 -0.462,0.341 -0.86,0.741 -1.203,1.207 -0.343,0.463 -0.631,0.966 -0.86,1.512 -0.232,0.546 -0.406,1.12 -0.52,1.717 -0.115,0.602 -0.174,1.207 -0.174,1.816 0,0.78 0.107,1.429 0.32,1.939 0.209,0.511 0.501,0.915 0.871,1.211 0.367,0.297 0.801,0.507 1.298,0.629 0.497,0.119 1.029,0.178 1.589,0.178 1.313,0.009 2.588,-0.241 3.861,-0.664l-0.513 2.486c-1.198,0.418 -2.722,0.576 -3.947,0.576 -0.931,0 -1.787,-0.118 -2.56,-0.352 -0.773,-0.237 -1.439,-0.601 -1.991,-1.096 -0.556,-0.495 -0.986,-1.132 -1.298,-1.903 -0.308,-0.772 -0.461,-1.694 -0.461,-2.762 0,-0.756 0.075,-1.527 0.225,-2.319 0.149,-0.787 0.382,-1.551 0.694,-2.291 0.311,-0.736 0.705,-1.432 1.179,-2.085 0.473,-0.653 1.037,-1.223 1.692,-1.71 0.654,-0.49 1.415,-0.874 2.275,-1.155 0.864,-0.281 1.794,-0.423 2.796,-0.423 0.548,0 1.175,0.051 1.877,0.15 0.706,0.099 1.365,0.249 1.972,0.447l-0.474 2.299c-0.579,-0.162 -1.119,-0.285 -1.628,-0.372 -0.509,-0.083 -1.045,-0.126 -1.609,-0.126z"/>
    <path class="fil1" d="M60.602 47.574c0,-0.356 -0.094,-0.645 -0.284,-0.87 -0.189,-0.226 -0.434,-0.412 -0.737,-0.558 -0.304,-0.147 -0.655,-0.277 -1.053,-0.388 -0.395,-0.111 -0.801,-0.229 -1.219,-0.352 -0.485,-0.154 -0.938,-0.336 -1.356,-0.546 -0.422,-0.21 -0.785,-0.467 -1.093,-0.772 -0.307,-0.304 -0.552,-0.676 -0.729,-1.108 -0.174,-0.431 -0.265,-0.934 -0.265,-1.507 0,-0.728 0.135,-1.389 0.399,-1.991 0.268,-0.597 0.643,-1.108 1.132,-1.535 0.489,-0.423 1.08,-0.752 1.774,-0.985 0.694,-0.234 1.467,-0.348 2.323,-0.348 0.907,0 1.81,0.099 2.702,0.292 0.889,0.197 1.67,0.44 2.345,0.731l-0.484 2.348c-0.871,-0.344 -1.645,-0.594 -2.327,-0.744 -0.682,-0.154 -1.364,-0.229 -2.05,-0.229 -0.919,0 -1.633,0.193 -2.15,0.581 -0.517,0.388 -0.773,0.906 -0.773,1.555 0,0.348 0.067,0.645 0.205,0.886 0.138,0.246 0.324,0.448 0.556,0.614 0.229,0.166 0.501,0.313 0.813,0.431 0.311,0.119 0.643,0.234 0.99,0.341 0.501,0.154 1.001,0.32 1.502,0.498 0.501,0.178 0.951,0.408 1.353,0.692 0.398,0.282 0.722,0.642 0.97,1.085 0.244,0.439 0.367,0.985 0.367,1.634 0,0.843 -0.158,1.598 -0.477,2.263 -0.32,0.665 -0.773,1.227 -1.365,1.69 -0.588,0.467 -1.301,0.819 -2.141,1.064 -0.84,0.242 -1.779,0.364 -2.808,0.364 -1.201,0 -3.714,-0.164 -4.788,-0.579l0.513 -2.483c1.246,0.425 3.228,0.663 4.298,0.664 0.584,0.001 1.112,-0.063 1.586,-0.186 0.477,-0.122 0.879,-0.3 1.214,-0.526 0.336,-0.229 0.596,-0.518 0.781,-0.862 0.186,-0.345 0.276,-0.732 0.276,-1.164z"/>
    <path class="fil1" d="M74.624 48.466l-5.49 0 -2.124 3.941 -3.143 0 8.566 -15.503 2.635 0 3.198 15.503 -2.891 0 -0.751 -3.941zm-4.205 -2.374l3.754 0 -0.317 -1.67c-0.257,-1.338 -0.467,-2.58 -0.625,-3.724l-0.071 0c-0.54,1.219 -1.131,2.414 -1.765,3.585l-0.976 1.809z"/>
    <polygon class="fil1" points="30.154,50.033 37.445,50.033 36.956,52.407 26.849,52.407 30.047,36.904 39.734,36.904 39.244,39.278 32.382,39.278 31.55,43.29 37.446,43.29 36.956,45.664 31.065,45.664 "/>
    <polygon class="fil1" points="4.291,50.033 11.582,50.033 11.094,52.407 0.986,52.407 4.185,36.904 13.871,36.904 13.381,39.278 6.519,39.278 5.687,43.29 11.584,43.29 11.094,45.664 5.202,45.664 "/>
    <polygon class="fil1" points="0.505,56.82 1.619,56.82 1.545,57.183 0,57.183 0.489,54.813 1.97,54.813 1.895,55.176 0.846,55.176 0.719,55.79 1.619,55.79 1.545,56.153 0.644,56.153 "/>
    <path id="_1" class="fil1" d="M3.269 56.544c0.084,-0.181 0.264,-0.518 0.541,-1.011l0.407 -0.72 0.585 0 -0.489 2.37 -0.431 0 0.252 -1.13c0.043,-0.189 0.097,-0.413 0.161,-0.673l-0.014 0c-0.117,0.251 -0.343,0.672 -0.678,1.265l-0.311 0.538 -0.287 0 -0.19 -1.28c-0.026,-0.171 -0.049,-0.345 -0.069,-0.523l-0.014 0c-0.015,0.175 -0.046,0.383 -0.092,0.622l-0.238 1.181 -0.431 0 0.489 -2.37 0.556 0 0.106 0.663c0.044,0.276 0.089,0.632 0.137,1.068l0.01 0z"/>
    <path id="_2" class="fil1" d="M5.286 57.183l-0.431 0 0.489 -2.37 0.592 0c0.222,0 0.393,0.021 0.513,0.061 0.142,0.047 0.244,0.119 0.308,0.214 0.063,0.096 0.095,0.207 0.095,0.335 0,0.124 -0.024,0.237 -0.073,0.34 -0.049,0.104 -0.121,0.193 -0.214,0.267 -0.093,0.074 -0.209,0.132 -0.346,0.173 -0.139,0.042 -0.297,0.062 -0.476,0.062 -0.091,0 -0.178,-0.006 -0.263,-0.017l-0.194 0.935zm0.268 -1.297c0.06,0.011 0.13,0.016 0.209,0.016 0.11,0 0.207,-0.011 0.289,-0.034 0.083,-0.022 0.151,-0.053 0.205,-0.093 0.054,-0.04 0.094,-0.089 0.122,-0.146 0.027,-0.058 0.041,-0.12 0.041,-0.189 0,-0.056 -0.015,-0.102 -0.045,-0.14 -0.029,-0.038 -0.069,-0.066 -0.118,-0.087 -0.031,-0.012 -0.069,-0.022 -0.116,-0.028 -0.048,-0.006 -0.106,-0.009 -0.177,-0.009l-0.263 0 -0.147 0.71z"/>
    <path id="_3" class="fil1" d="M7.407 57.183l-0.431 0 0.489 -2.37 0.639 0c0.103,0 0.191,0.004 0.264,0.011 0.074,0.007 0.138,0.019 0.194,0.035 0.156,0.045 0.269,0.116 0.342,0.213 0.072,0.097 0.108,0.211 0.108,0.342 0,0.095 -0.013,0.185 -0.04,0.269 -0.026,0.084 -0.068,0.159 -0.125,0.226 -0.057,0.068 -0.13,0.126 -0.219,0.175 -0.089,0.05 -0.196,0.089 -0.32,0.118l0 0.006 0.524 0.975 -0.477 0 -0.473 -0.918 -0.286 0 -0.189 0.918zm0.265 -1.281l0.165 0c0.079,0 0.151,-0.002 0.213,-0.008 0.062,-0.005 0.118,-0.015 0.167,-0.029 0.113,-0.03 0.2,-0.081 0.266,-0.15 0.064,-0.069 0.097,-0.158 0.097,-0.268 0,-0.056 -0.014,-0.106 -0.04,-0.149 -0.025,-0.042 -0.068,-0.073 -0.126,-0.093 -0.029,-0.01 -0.065,-0.017 -0.11,-0.021 -0.045,-0.005 -0.101,-0.008 -0.167,-0.008l-0.315 0 -0.15 0.726z"/>
    <polygon id="_4" class="fil1" points="9.641,56.82 10.755,56.82 10.681,57.183 9.136,57.183 9.625,54.813 11.106,54.813 11.031,55.176 9.982,55.176 9.855,55.79 10.755,55.79 10.681,56.153 9.78,56.153 "/>
    <path id="_5" class="fil1" d="M12.38 56.442c0,-0.055 -0.014,-0.099 -0.043,-0.133 -0.029,-0.035 -0.066,-0.063 -0.113,-0.086 -0.046,-0.022 -0.1,-0.042 -0.161,-0.059 -0.06,-0.017 -0.122,-0.035 -0.186,-0.054 -0.074,-0.023 -0.144,-0.051 -0.208,-0.083 -0.064,-0.032 -0.119,-0.071 -0.167,-0.118 -0.046,-0.047 -0.084,-0.103 -0.111,-0.169 -0.026,-0.067 -0.04,-0.143 -0.04,-0.231 0,-0.111 0.02,-0.212 0.06,-0.304 0.042,-0.091 0.099,-0.17 0.173,-0.235 0.075,-0.064 0.166,-0.115 0.272,-0.15 0.106,-0.036 0.224,-0.054 0.355,-0.054 0.138,0 0.277,0.015 0.413,0.045 0.137,0.03 0.257,0.068 0.36,0.113l-0.076 0.358c-0.133,-0.053 -0.251,-0.091 -0.355,-0.114 -0.105,-0.024 -0.209,-0.035 -0.314,-0.035 -0.14,0 -0.25,0.029 -0.328,0.089 -0.079,0.059 -0.118,0.138 -0.118,0.237 0,0.054 0.01,0.099 0.031,0.136 0.021,0.037 0.049,0.068 0.085,0.094 0.035,0.025 0.076,0.047 0.124,0.066 0.047,0.018 0.099,0.035 0.151,0.052 0.077,0.023 0.153,0.049 0.23,0.076 0.076,0.027 0.145,0.062 0.207,0.106 0.061,0.043 0.11,0.098 0.148,0.166 0.037,0.066 0.056,0.15 0.056,0.249 0,0.129 -0.024,0.245 -0.073,0.346 -0.049,0.102 -0.118,0.188 -0.208,0.258 -0.09,0.072 -0.199,0.126 -0.328,0.163 -0.128,0.037 -0.272,0.056 -0.429,0.056 -0.082,0 -0.161,-0.006 -0.237,-0.016 -0.076,-0.011 -0.146,-0.023 -0.209,-0.04 -0.063,-0.016 -0.119,-0.033 -0.167,-0.052 -0.048,-0.02 -0.086,-0.038 -0.115,-0.055l0.074 -0.356c0.09,0.043 0.191,0.078 0.303,0.108 0.111,0.03 0.23,0.044 0.355,0.044 0.089,0 0.17,-0.01 0.242,-0.028 0.073,-0.019 0.135,-0.046 0.186,-0.08 0.051,-0.036 0.091,-0.08 0.119,-0.133 0.029,-0.052 0.042,-0.111 0.042,-0.177z"/>
    <path id="_6" class="fil1" d="M14.578 56.581l-0.84 0 -0.326 0.602 -0.481 0 1.318 -2.37 0.403 0 0.48 2.37 -0.442 0 -0.112 -0.602zm-0.642 -0.363l0.574 0 -0.047 -0.255c-0.039,-0.205 -0.071,-0.395 -0.094,-0.57l-0.011 0c-0.083,0.187 -0.174,0.37 -0.272,0.549l-0.15 0.276z"/>
    <path id="_7" class="fil1" d="M16.736 56.82l0.266 0c0.111,0 0.208,-0.009 0.291,-0.029 0.084,-0.02 0.16,-0.047 0.228,-0.083 0.09,-0.045 0.168,-0.103 0.233,-0.173 0.067,-0.07 0.121,-0.147 0.167,-0.232 0.044,-0.085 0.078,-0.176 0.101,-0.273 0.023,-0.096 0.036,-0.194 0.038,-0.294 0.002,-0.129 -0.018,-0.236 -0.062,-0.319 -0.044,-0.082 -0.113,-0.144 -0.208,-0.184 -0.046,-0.02 -0.1,-0.034 -0.161,-0.043 -0.061,-0.009 -0.136,-0.014 -0.224,-0.014l-0.329 0 -0.34 1.644zm0.688 -2.007c0.121,0 0.227,0.008 0.318,0.023 0.091,0.014 0.173,0.037 0.245,0.066 0.087,0.036 0.163,0.08 0.226,0.133 0.064,0.053 0.116,0.114 0.158,0.183 0.041,0.068 0.072,0.143 0.091,0.225 0.02,0.083 0.031,0.17 0.031,0.261 0,0.059 -0.006,0.126 -0.015,0.203 -0.011,0.076 -0.028,0.157 -0.053,0.242 -0.024,0.085 -0.058,0.171 -0.099,0.26 -0.042,0.087 -0.095,0.172 -0.159,0.254 -0.064,0.081 -0.141,0.157 -0.23,0.226 -0.089,0.07 -0.192,0.128 -0.312,0.176 -0.093,0.036 -0.197,0.065 -0.312,0.086 -0.116,0.022 -0.251,0.032 -0.408,0.032l-0.674 0 0.488 -2.37 0.705 0z"/>
    <polygon id="_8" class="fil1" points="19.175,56.82 20.289,56.82 20.214,57.183 18.67,57.183 19.158,54.813 20.64,54.813 20.564,55.176 19.515,55.176 19.388,55.79 20.289,55.79 20.214,56.153 19.314,56.153 "/>
    <polygon id="_9" class="fil1" points="21.958,57.183 21.527,57.183 21.942,55.176 21.201,55.176 21.273,54.813 23.189,54.813 23.115,55.176 22.373,55.176 "/>
    <polygon id="_10" class="fil1" points="23.553,56.82 24.667,56.82 24.593,57.183 23.048,57.183 23.536,54.813 25.018,54.813 24.942,55.176 23.893,55.176 23.766,55.79 24.667,55.79 24.593,56.153 23.692,56.153 "/>
    <polygon id="_11" class="fil1" points="25.524,56.82 26.638,56.82 26.564,57.183 25.019,57.183 25.508,54.813 25.939,54.813 "/>
    <polygon id="_12" class="fil1" points="27.471,56.82 28.585,56.82 28.51,57.183 26.966,57.183 27.454,54.813 28.936,54.813 28.86,55.176 27.811,55.176 27.684,55.79 28.585,55.79 28.51,56.153 27.61,56.153 "/>
    <path id="_13" class="fil1" d="M30.427 55.133c-0.101,0 -0.196,0.014 -0.284,0.044 -0.089,0.03 -0.168,0.071 -0.238,0.123 -0.07,0.052 -0.131,0.113 -0.183,0.184 -0.053,0.071 -0.097,0.148 -0.132,0.231 -0.035,0.084 -0.062,0.171 -0.08,0.263 -0.017,0.092 -0.026,0.184 -0.026,0.277 0,0.12 0.016,0.219 0.049,0.297 0.032,0.078 0.076,0.139 0.133,0.185 0.056,0.045 0.122,0.077 0.198,0.096 0.076,0.018 0.157,0.027 0.243,0.027 0.094,0.002 0.191,-0.007 0.291,-0.025 0.099,-0.018 0.199,-0.043 0.299,-0.076l-0.077 0.379c-0.096,0.034 -0.198,0.057 -0.308,0.069 -0.11,0.013 -0.209,0.02 -0.296,0.02 -0.143,0 -0.273,-0.018 -0.392,-0.054 -0.118,-0.036 -0.22,-0.092 -0.304,-0.167 -0.085,-0.076 -0.151,-0.174 -0.198,-0.292 -0.047,-0.118 -0.071,-0.258 -0.071,-0.422 0,-0.115 0.011,-0.233 0.034,-0.354 0.023,-0.12 0.059,-0.237 0.106,-0.35 0.048,-0.113 0.108,-0.219 0.181,-0.319 0.072,-0.1 0.158,-0.187 0.258,-0.261 0.101,-0.075 0.217,-0.134 0.348,-0.177 0.132,-0.043 0.275,-0.065 0.428,-0.065 0.083,0 0.179,0.008 0.286,0.023 0.108,0.015 0.209,0.038 0.302,0.069l-0.072 0.351c-0.089,-0.025 -0.171,-0.043 -0.249,-0.057 -0.078,-0.013 -0.16,-0.019 -0.246,-0.019z"/>
    <path id="_14" class="fil1" d="M32.405 55.133c-0.095,0 -0.183,0.016 -0.263,0.05 -0.08,0.033 -0.153,0.078 -0.218,0.135 -0.066,0.057 -0.124,0.124 -0.174,0.201 -0.05,0.077 -0.091,0.159 -0.125,0.247 -0.033,0.087 -0.059,0.178 -0.075,0.272 -0.018,0.094 -0.026,0.186 -0.026,0.276 0,0.09 0.012,0.169 0.035,0.237 0.024,0.068 0.057,0.125 0.102,0.171 0.043,0.046 0.098,0.081 0.161,0.104 0.064,0.023 0.135,0.034 0.214,0.034 0.095,0 0.183,-0.016 0.263,-0.049 0.08,-0.034 0.153,-0.079 0.218,-0.136 0.065,-0.057 0.123,-0.124 0.173,-0.201 0.05,-0.077 0.092,-0.159 0.125,-0.247 0.034,-0.087 0.06,-0.178 0.076,-0.272 0.017,-0.094 0.026,-0.186 0.026,-0.276 0,-0.18 -0.045,-0.316 -0.137,-0.408 -0.091,-0.092 -0.216,-0.138 -0.375,-0.138zm0.03 -0.367c0.137,0 0.263,0.02 0.375,0.058 0.113,0.038 0.209,0.096 0.289,0.172 0.08,0.077 0.142,0.171 0.186,0.283 0.043,0.113 0.065,0.243 0.065,0.392 0,0.092 -0.01,0.194 -0.029,0.306 -0.019,0.112 -0.051,0.226 -0.095,0.341 -0.043,0.115 -0.1,0.228 -0.169,0.337 -0.07,0.11 -0.154,0.207 -0.254,0.29 -0.099,0.085 -0.215,0.153 -0.346,0.205 -0.133,0.051 -0.283,0.077 -0.451,0.077 -0.138,0 -0.263,-0.02 -0.376,-0.058 -0.112,-0.038 -0.208,-0.096 -0.288,-0.172 -0.08,-0.076 -0.142,-0.171 -0.186,-0.283 -0.043,-0.113 -0.065,-0.244 -0.065,-0.391 0,-0.092 0.01,-0.195 0.029,-0.307 0.02,-0.112 0.051,-0.226 0.094,-0.341 0.045,-0.115 0.101,-0.228 0.17,-0.337 0.07,-0.11 0.154,-0.206 0.254,-0.29 0.099,-0.085 0.215,-0.153 0.347,-0.205 0.131,-0.051 0.282,-0.077 0.45,-0.077z"/>
    <path id="_15" class="fil1" d="M34.824 56.544c0.084,-0.181 0.264,-0.518 0.541,-1.011l0.407 -0.72 0.585 0 -0.489 2.37 -0.431 0 0.253 -1.13c0.042,-0.189 0.096,-0.413 0.16,-0.673l-0.014 0c-0.117,0.251 -0.343,0.672 -0.678,1.265l-0.311 0.538 -0.287 0 -0.19 -1.28c-0.026,-0.171 -0.049,-0.345 -0.069,-0.523l-0.014 0c-0.015,0.175 -0.046,0.383 -0.092,0.622l-0.238 1.181 -0.431 0 0.489 -2.37 0.556 0 0.107 0.663c0.043,0.276 0.088,0.632 0.136,1.068l0.01 0z"/>
    <path id="_16" class="fil1" d="M37.385 56.86c0.122,0 0.228,-0.025 0.32,-0.076 0.091,-0.052 0.167,-0.134 0.227,-0.248 0.021,-0.041 0.04,-0.088 0.057,-0.141 0.018,-0.054 0.035,-0.118 0.051,-0.195l0.286 -1.387 0.431 0 -0.304 1.474c-0.019,0.088 -0.038,0.164 -0.057,0.226 -0.02,0.063 -0.043,0.12 -0.068,0.174 -0.039,0.079 -0.087,0.152 -0.143,0.219 -0.057,0.066 -0.125,0.123 -0.204,0.17 -0.08,0.047 -0.172,0.084 -0.277,0.111 -0.105,0.027 -0.225,0.04 -0.36,0.04 -0.148,0 -0.274,-0.02 -0.377,-0.059 -0.103,-0.039 -0.186,-0.091 -0.251,-0.157 -0.064,-0.066 -0.11,-0.143 -0.139,-0.231 -0.029,-0.087 -0.044,-0.179 -0.044,-0.275 0,-0.057 0.004,-0.112 0.012,-0.166 0.008,-0.054 0.017,-0.108 0.029,-0.164l0.281 -1.362 0.431 0 -0.29 1.41c-0.009,0.041 -0.016,0.081 -0.021,0.118 -0.005,0.038 -0.007,0.074 -0.007,0.109 0,0.056 0.007,0.109 0.021,0.159 0.014,0.049 0.037,0.093 0.069,0.13 0.033,0.037 0.076,0.067 0.129,0.089 0.053,0.021 0.119,0.032 0.198,0.032z"/>
    <path id="_17" class="fil1" d="M40.335 57.183l-0.485 -1.05c-0.119,-0.255 -0.214,-0.482 -0.285,-0.682l-0.01 0c-0.022,0.196 -0.06,0.421 -0.113,0.675l-0.219 1.057 -0.431 0 0.489 -2.37 0.419 0 0.485 1.05c0.119,0.254 0.214,0.482 0.285,0.683l0.01 0c0.016,-0.155 0.053,-0.38 0.113,-0.675l0.219 -1.058 0.431 0 -0.489 2.37 -0.419 0z"/>
    <polygon id="_18" class="fil1" points="41.296,57.183 41.785,54.813 42.216,54.813 41.727,57.183 "/>
    <path id="_19" class="fil1" d="M43.759 55.133c-0.1,0 -0.195,0.014 -0.284,0.044 -0.088,0.03 -0.167,0.071 -0.237,0.123 -0.07,0.052 -0.132,0.113 -0.184,0.184 -0.053,0.071 -0.097,0.148 -0.132,0.231 -0.035,0.084 -0.061,0.171 -0.079,0.263 -0.017,0.092 -0.026,0.184 -0.026,0.277 0,0.12 0.016,0.219 0.048,0.297 0.032,0.078 0.077,0.139 0.134,0.185 0.056,0.045 0.122,0.077 0.198,0.096 0.076,0.018 0.157,0.027 0.243,0.027 0.094,0.002 0.191,-0.007 0.291,-0.025 0.099,-0.018 0.199,-0.043 0.299,-0.076l-0.078 0.379c-0.095,0.034 -0.197,0.057 -0.307,0.069 -0.11,0.013 -0.209,0.02 -0.297,0.02 -0.142,0 -0.273,-0.018 -0.391,-0.054 -0.118,-0.036 -0.22,-0.092 -0.304,-0.167 -0.085,-0.076 -0.151,-0.174 -0.199,-0.292 -0.047,-0.118 -0.07,-0.258 -0.07,-0.422 0,-0.115 0.011,-0.233 0.034,-0.354 0.023,-0.12 0.059,-0.237 0.106,-0.35 0.048,-0.113 0.108,-0.219 0.18,-0.319 0.073,-0.1 0.159,-0.187 0.259,-0.261 0.1,-0.075 0.216,-0.134 0.348,-0.177 0.132,-0.043 0.274,-0.065 0.427,-0.065 0.084,0 0.18,0.008 0.287,0.023 0.108,0.015 0.209,0.038 0.302,0.069l-0.073 0.351c-0.088,-0.025 -0.171,-0.043 -0.249,-0.057 -0.077,-0.013 -0.16,-0.019 -0.246,-0.019z"/>
    <path id="_20" class="fil1" d="M45.796 56.581l-0.839 0 -0.327 0.602 -0.48 0 1.318 -2.37 0.402 0 0.481 2.37 -0.442 0 -0.113 -0.602zm-0.641 -0.363l0.574 0 -0.048 -0.255c-0.039,-0.205 -0.07,-0.395 -0.093,-0.57l-0.011 0c-0.084,0.187 -0.175,0.37 -0.272,0.549l-0.15 0.276z"/>
    <path id="_21" class="fil1" d="M48.088 55.133c-0.101,0 -0.196,0.014 -0.284,0.044 -0.088,0.03 -0.167,0.071 -0.238,0.123 -0.07,0.052 -0.131,0.113 -0.183,0.184 -0.053,0.071 -0.097,0.148 -0.132,0.231 -0.035,0.084 -0.062,0.171 -0.079,0.263 -0.018,0.092 -0.027,0.184 -0.027,0.277 0,0.12 0.017,0.219 0.049,0.297 0.032,0.078 0.077,0.139 0.133,0.185 0.057,0.045 0.123,0.077 0.199,0.096 0.076,0.018 0.157,0.027 0.243,0.027 0.094,0.002 0.191,-0.007 0.29,-0.025 0.1,-0.018 0.2,-0.043 0.3,-0.076l-0.078 0.379c-0.095,0.034 -0.198,0.057 -0.307,0.069 -0.11,0.013 -0.209,0.02 -0.297,0.02 -0.142,0 -0.273,-0.018 -0.391,-0.054 -0.118,-0.036 -0.22,-0.092 -0.305,-0.167 -0.085,-0.076 -0.15,-0.174 -0.198,-0.292 -0.047,-0.118 -0.071,-0.258 -0.071,-0.422 0,-0.115 0.012,-0.233 0.035,-0.354 0.023,-0.12 0.058,-0.237 0.106,-0.35 0.048,-0.113 0.108,-0.219 0.18,-0.319 0.073,-0.1 0.159,-0.187 0.259,-0.261 0.1,-0.075 0.216,-0.134 0.348,-0.177 0.132,-0.043 0.274,-0.065 0.427,-0.065 0.084,0 0.18,0.008 0.287,0.023 0.108,0.015 0.209,0.038 0.301,0.069l-0.072 0.351c-0.089,-0.025 -0.171,-0.043 -0.249,-0.057 -0.078,-0.013 -0.16,-0.019 -0.246,-0.019z"/>
    <polygon id="_22" class="fil1" points="48.691,57.183 49.18,54.813 49.611,54.813 49.122,57.183 "/>
    <path id="_23" class="fil1" d="M51.093 55.133c-0.096,0 -0.184,0.016 -0.264,0.05 -0.079,0.033 -0.153,0.078 -0.217,0.135 -0.066,0.057 -0.124,0.124 -0.174,0.201 -0.05,0.077 -0.092,0.159 -0.126,0.247 -0.033,0.087 -0.058,0.178 -0.075,0.272 -0.017,0.094 -0.026,0.186 -0.026,0.276 0,0.09 0.012,0.169 0.036,0.237 0.023,0.068 0.057,0.125 0.101,0.171 0.044,0.046 0.098,0.081 0.161,0.104 0.065,0.023 0.136,0.034 0.215,0.034 0.095,0 0.182,-0.016 0.263,-0.049 0.08,-0.034 0.153,-0.079 0.218,-0.136 0.065,-0.057 0.123,-0.124 0.173,-0.201 0.05,-0.077 0.091,-0.159 0.125,-0.247 0.034,-0.087 0.059,-0.178 0.076,-0.272 0.017,-0.094 0.026,-0.186 0.026,-0.276 0,-0.18 -0.046,-0.316 -0.138,-0.408 -0.091,-0.092 -0.215,-0.138 -0.374,-0.138zm0.03 -0.367c0.137,0 0.262,0.02 0.375,0.058 0.112,0.038 0.209,0.096 0.288,0.172 0.08,0.077 0.143,0.171 0.186,0.283 0.044,0.113 0.065,0.243 0.065,0.392 0,0.092 -0.01,0.194 -0.029,0.306 -0.019,0.112 -0.051,0.226 -0.094,0.341 -0.044,0.115 -0.101,0.228 -0.17,0.337 -0.069,0.11 -0.153,0.207 -0.253,0.29 -0.099,0.085 -0.215,0.153 -0.347,0.205 -0.132,0.051 -0.282,0.077 -0.451,0.077 -0.138,0 -0.262,-0.02 -0.375,-0.058 -0.112,-0.038 -0.209,-0.096 -0.289,-0.172 -0.08,-0.076 -0.141,-0.171 -0.185,-0.283 -0.044,-0.113 -0.066,-0.244 -0.066,-0.391 0,-0.092 0.01,-0.195 0.03,-0.307 0.019,-0.112 0.051,-0.226 0.094,-0.341 0.044,-0.115 0.1,-0.228 0.17,-0.337 0.069,-0.11 0.154,-0.206 0.253,-0.29 0.099,-0.085 0.215,-0.153 0.347,-0.205 0.132,-0.051 0.282,-0.077 0.451,-0.077z"/>
    <path id="_24" class="fil1" d="M53.757 57.183l-0.485 -1.05c-0.12,-0.255 -0.214,-0.482 -0.285,-0.682l-0.011 0c-0.022,0.196 -0.06,0.421 -0.112,0.675l-0.219 1.057 -0.431 0 0.488 -2.37 0.42 0 0.485 1.05c0.119,0.254 0.214,0.482 0.284,0.683l0.011 0c0.015,-0.155 0.053,-0.38 0.113,-0.675l0.218 -1.058 0.432 0 -0.489 2.37 -0.419 0z"/>
    <polygon id="_25" class="fil1" points="55.223,56.82 56.337,56.82 56.263,57.183 54.718,57.183 55.207,54.813 56.688,54.813 56.612,55.176 55.564,55.176 55.436,55.79 56.337,55.79 56.263,56.153 55.362,56.153 "/>
    <path id="_26" class="fil1" d="M57.962 56.442c0,-0.055 -0.014,-0.099 -0.043,-0.133 -0.029,-0.035 -0.067,-0.063 -0.113,-0.086 -0.046,-0.022 -0.1,-0.042 -0.161,-0.059 -0.06,-0.017 -0.123,-0.035 -0.186,-0.054 -0.074,-0.023 -0.144,-0.051 -0.208,-0.083 -0.064,-0.032 -0.12,-0.071 -0.167,-0.118 -0.047,-0.047 -0.084,-0.103 -0.111,-0.169 -0.027,-0.067 -0.041,-0.143 -0.041,-0.231 0,-0.111 0.021,-0.212 0.061,-0.304 0.041,-0.091 0.098,-0.17 0.173,-0.235 0.075,-0.064 0.166,-0.115 0.272,-0.15 0.106,-0.036 0.224,-0.054 0.354,-0.054 0.139,0 0.277,0.015 0.413,0.045 0.137,0.03 0.257,0.068 0.361,0.113l-0.076 0.358c-0.133,-0.053 -0.251,-0.091 -0.356,-0.114 -0.104,-0.024 -0.208,-0.035 -0.313,-0.035 -0.141,0 -0.25,0.029 -0.328,0.089 -0.08,0.059 -0.119,0.138 -0.119,0.237 0,0.054 0.011,0.099 0.032,0.136 0.02,0.037 0.049,0.068 0.085,0.094 0.034,0.025 0.076,0.047 0.124,0.066 0.047,0.018 0.098,0.035 0.151,0.052 0.077,0.023 0.153,0.049 0.23,0.076 0.076,0.027 0.145,0.062 0.206,0.106 0.062,0.043 0.111,0.098 0.149,0.166 0.037,0.066 0.056,0.15 0.056,0.249 0,0.129 -0.024,0.245 -0.073,0.346 -0.049,0.102 -0.118,0.188 -0.209,0.258 -0.09,0.072 -0.198,0.126 -0.327,0.163 -0.128,0.037 -0.272,0.056 -0.429,0.056 -0.083,0 -0.162,-0.006 -0.238,-0.016 -0.076,-0.011 -0.145,-0.023 -0.209,-0.04 -0.062,-0.016 -0.118,-0.033 -0.166,-0.052 -0.048,-0.02 -0.087,-0.038 -0.115,-0.055l0.074 -0.356c0.09,0.043 0.19,0.078 0.302,0.108 0.112,0.03 0.231,0.044 0.355,0.044 0.09,0 0.17,-0.01 0.243,-0.028 0.073,-0.019 0.134,-0.046 0.185,-0.08 0.051,-0.036 0.091,-0.08 0.12,-0.133 0.028,-0.052 0.042,-0.111 0.042,-0.177z"/>
    <path id="_27" class="fil1" d="M59.975 56.82l0.267 0c0.111,0 0.208,-0.009 0.291,-0.029 0.084,-0.02 0.16,-0.047 0.228,-0.083 0.09,-0.045 0.168,-0.103 0.233,-0.173 0.066,-0.07 0.121,-0.147 0.166,-0.232 0.045,-0.085 0.079,-0.176 0.102,-0.273 0.023,-0.096 0.036,-0.194 0.038,-0.294 0.002,-0.129 -0.018,-0.236 -0.062,-0.319 -0.044,-0.082 -0.113,-0.144 -0.208,-0.184 -0.046,-0.02 -0.1,-0.034 -0.161,-0.043 -0.061,-0.009 -0.136,-0.014 -0.225,-0.014l-0.328 0 -0.341 1.644zm0.689 -2.007c0.121,0 0.227,0.008 0.318,0.023 0.091,0.014 0.172,0.037 0.245,0.066 0.087,0.036 0.162,0.08 0.227,0.133 0.063,0.053 0.115,0.114 0.157,0.183 0.041,0.068 0.072,0.143 0.091,0.225 0.021,0.083 0.03,0.17 0.03,0.261 0,0.059 -0.005,0.126 -0.014,0.203 -0.011,0.076 -0.028,0.157 -0.053,0.242 -0.025,0.085 -0.058,0.171 -0.1,0.26 -0.041,0.087 -0.094,0.172 -0.159,0.254 -0.063,0.081 -0.14,0.157 -0.229,0.226 -0.089,0.07 -0.193,0.128 -0.312,0.176 -0.093,0.036 -0.197,0.065 -0.312,0.086 -0.116,0.022 -0.252,0.032 -0.408,0.032l-0.675 0 0.489 -2.37 0.705 0z"/>
    <polygon id="_28" class="fil1" points="62.414,56.82 63.529,56.82 63.454,57.183 61.909,57.183 62.398,54.813 63.88,54.813 63.804,55.176 62.755,55.176 62.628,55.79 63.529,55.79 63.454,56.153 62.554,56.153 "/>
    <path id="_29" class="fil1" d="M65.966 55.133c-0.101,0 -0.196,0.014 -0.284,0.044 -0.089,0.03 -0.168,0.071 -0.238,0.123 -0.07,0.052 -0.131,0.113 -0.183,0.184 -0.053,0.071 -0.097,0.148 -0.132,0.231 -0.035,0.084 -0.062,0.171 -0.08,0.263 -0.017,0.092 -0.026,0.184 -0.026,0.277 0,0.12 0.016,0.219 0.049,0.297 0.032,0.078 0.076,0.139 0.133,0.185 0.056,0.045 0.122,0.077 0.198,0.096 0.076,0.018 0.157,0.027 0.243,0.027 0.094,0.002 0.191,-0.007 0.291,-0.025 0.099,-0.018 0.199,-0.043 0.299,-0.076l-0.077 0.379c-0.096,0.034 -0.198,0.057 -0.308,0.069 -0.11,0.013 -0.209,0.02 -0.296,0.02 -0.143,0 -0.274,-0.018 -0.392,-0.054 -0.118,-0.036 -0.22,-0.092 -0.304,-0.167 -0.085,-0.076 -0.151,-0.174 -0.198,-0.292 -0.048,-0.118 -0.071,-0.258 -0.071,-0.422 0,-0.115 0.011,-0.233 0.034,-0.354 0.023,-0.12 0.059,-0.237 0.106,-0.35 0.048,-0.113 0.108,-0.219 0.181,-0.319 0.072,-0.1 0.158,-0.187 0.258,-0.261 0.1,-0.075 0.217,-0.134 0.348,-0.177 0.132,-0.043 0.274,-0.065 0.427,-0.065 0.084,0 0.18,0.008 0.287,0.023 0.108,0.015 0.209,0.038 0.302,0.069l-0.073 0.351c-0.088,-0.025 -0.171,-0.043 -0.249,-0.057 -0.077,-0.013 -0.159,-0.019 -0.245,-0.019z"/>
    <path id="_30" class="fil1" d="M67.543 56.86c0.123,0 0.229,-0.025 0.321,-0.076 0.091,-0.052 0.167,-0.134 0.226,-0.248 0.022,-0.041 0.041,-0.088 0.058,-0.141 0.017,-0.054 0.034,-0.118 0.05,-0.195l0.286 -1.387 0.431 0 -0.304 1.474c-0.019,0.088 -0.038,0.164 -0.057,0.226 -0.019,0.063 -0.042,0.12 -0.068,0.174 -0.039,0.079 -0.086,0.152 -0.143,0.219 -0.057,0.066 -0.124,0.123 -0.204,0.17 -0.079,0.047 -0.172,0.084 -0.276,0.111 -0.105,0.027 -0.225,0.04 -0.36,0.04 -0.148,0 -0.275,-0.02 -0.378,-0.059 -0.103,-0.039 -0.186,-0.091 -0.251,-0.157 -0.063,-0.066 -0.11,-0.143 -0.139,-0.231 -0.029,-0.087 -0.043,-0.179 -0.043,-0.275 0,-0.057 0.004,-0.112 0.011,-0.166 0.008,-0.054 0.018,-0.108 0.029,-0.164l0.281 -1.362 0.431 0 -0.29 1.41c-0.009,0.041 -0.016,0.081 -0.021,0.118 -0.005,0.038 -0.007,0.074 -0.007,0.109 0,0.056 0.007,0.109 0.022,0.159 0.014,0.049 0.037,0.093 0.069,0.13 0.033,0.037 0.075,0.067 0.128,0.089 0.053,0.021 0.119,0.032 0.198,0.032z"/>
    <path id="_31" class="fil1" d="M69.982 55.79c0.071,0 0.13,-0.003 0.176,-0.01 0.048,-0.007 0.088,-0.017 0.122,-0.031 0.073,-0.029 0.13,-0.072 0.168,-0.127 0.039,-0.055 0.058,-0.122 0.058,-0.2 0,-0.045 -0.011,-0.086 -0.035,-0.124 -0.024,-0.038 -0.063,-0.066 -0.12,-0.088 -0.028,-0.01 -0.063,-0.019 -0.106,-0.025 -0.042,-0.006 -0.092,-0.009 -0.148,-0.009l-0.301 0 -0.127 0.614 0.313 0zm-0.387 0.363l-0.139 0.667 0.224 0c0.199,0 0.35,-0.02 0.452,-0.06 0.102,-0.039 0.174,-0.092 0.219,-0.159 0.045,-0.066 0.067,-0.137 0.067,-0.213 0,-0.05 -0.013,-0.092 -0.039,-0.128 -0.026,-0.036 -0.068,-0.064 -0.127,-0.082 -0.027,-0.01 -0.059,-0.016 -0.096,-0.02 -0.037,-0.003 -0.084,-0.005 -0.141,-0.005l-0.42 0zm1.344 -0.766c0,0.141 -0.036,0.258 -0.109,0.352 -0.072,0.094 -0.175,0.169 -0.31,0.226l0 0.007c0.053,0.014 0.1,0.035 0.142,0.063 0.041,0.027 0.076,0.06 0.104,0.097 0.028,0.038 0.05,0.079 0.064,0.125 0.013,0.046 0.021,0.094 0.021,0.144 0,0.158 -0.048,0.298 -0.144,0.42 -0.096,0.122 -0.24,0.215 -0.43,0.279 -0.085,0.027 -0.181,0.048 -0.289,0.062 -0.108,0.014 -0.23,0.021 -0.367,0.021l-0.67 0 0.489 -2.37 0.658 0c0.094,0 0.179,0.006 0.252,0.016 0.074,0.011 0.14,0.026 0.197,0.046 0.127,0.046 0.224,0.113 0.291,0.202 0.068,0.09 0.101,0.194 0.101,0.31z"/>
    <path id="_32" class="fil1" d="M72.585 56.581l-0.839 0 -0.327 0.602 -0.48 0 1.318 -2.37 0.402 0 0.48 2.37 -0.441 0 -0.113 -0.602zm-0.642 -0.363l0.575 0 -0.048 -0.255c-0.039,-0.205 -0.07,-0.395 -0.094,-0.57l-0.01 0c-0.084,0.187 -0.175,0.37 -0.272,0.549l-0.151 0.276z"/>
    <path id="_33" class="fil1" d="M75.37 56.442c0,-0.055 -0.014,-0.099 -0.044,-0.133 -0.028,-0.035 -0.066,-0.063 -0.112,-0.086 -0.047,-0.022 -0.1,-0.042 -0.161,-0.059 -0.061,-0.017 -0.123,-0.035 -0.186,-0.054 -0.074,-0.023 -0.144,-0.051 -0.208,-0.083 -0.064,-0.032 -0.12,-0.071 -0.167,-0.118 -0.047,-0.047 -0.084,-0.103 -0.112,-0.169 -0.026,-0.067 -0.04,-0.143 -0.04,-0.231 0,-0.111 0.021,-0.212 0.061,-0.304 0.041,-0.091 0.098,-0.17 0.173,-0.235 0.075,-0.064 0.165,-0.115 0.272,-0.15 0.106,-0.036 0.224,-0.054 0.355,-0.054 0.138,0 0.276,0.015 0.413,0.045 0.136,0.03 0.256,0.068 0.36,0.113l-0.076 0.358c-0.133,-0.053 -0.252,-0.091 -0.356,-0.114 -0.104,-0.024 -0.208,-0.035 -0.313,-0.035 -0.141,0 -0.25,0.029 -0.329,0.089 -0.079,0.059 -0.118,0.138 -0.118,0.237 0,0.054 0.011,0.099 0.031,0.136 0.022,0.037 0.05,0.068 0.085,0.094 0.035,0.025 0.077,0.047 0.125,0.066 0.047,0.018 0.098,0.035 0.151,0.052 0.076,0.023 0.153,0.049 0.229,0.076 0.077,0.027 0.146,0.062 0.207,0.106 0.061,0.043 0.111,0.098 0.149,0.166 0.037,0.066 0.056,0.15 0.056,0.249 0,0.129 -0.024,0.245 -0.073,0.346 -0.049,0.102 -0.118,0.188 -0.209,0.258 -0.09,0.072 -0.199,0.126 -0.327,0.163 -0.129,0.037 -0.272,0.056 -0.429,0.056 -0.083,0 -0.162,-0.006 -0.238,-0.016 -0.076,-0.011 -0.145,-0.023 -0.208,-0.04 -0.063,-0.016 -0.119,-0.033 -0.167,-0.052 -0.048,-0.02 -0.087,-0.038 -0.115,-0.055l0.074 -0.356c0.089,0.043 0.19,0.078 0.302,0.108 0.112,0.03 0.23,0.044 0.355,0.044 0.09,0 0.17,-0.01 0.243,-0.028 0.073,-0.019 0.134,-0.046 0.185,-0.08 0.051,-0.036 0.091,-0.08 0.12,-0.133 0.028,-0.052 0.042,-0.111 0.042,-0.177z"/>
    <path id="_34" class="fil1" d="M78.654 56.581l-0.84 0 -0.326 0.602 -0.481 0 1.318 -2.37 0.403 0 0.48 2.37 -0.442 0 -0.112 -0.602zm-0.642 -0.363l0.574 0 -0.048 -0.255c-0.038,-0.205 -0.07,-0.395 -0.093,-0.57l-0.011 0c-0.083,0.187 -0.174,0.37 -0.271,0.549l-0.151 0.276z"/>
    <polygon id="_35" class="fil1" points="76.097,56.712 76.571,56.712 76.474,57.183 75.999,57.183 "/>
    <polygon id="_36" class="fil1" points="79.525,56.712 80,56.712 79.902,57.183 79.428,57.183 "/>
   </g>
  </g>
 </g>
</svg>
